<?xml version="1.0" standalone="no"?>
<!DOCTYPE svg PUBLIC "-//W3C//DTD SVG 20010904//EN"
 "http://www.w3.org/TR/2001/REC-SVG-20010904/DTD/svg10.dtd">
<svg version="1.0" xmlns="http://www.w3.org/2000/svg"
 width="71.000000pt" height="71.000000pt" viewBox="0 0 71.000000 71.000000"
 preserveAspectRatio="xMidYMid meet">
<metadata>
Created by potrace 1.14, written by Peter Selinger 2001-2017
</metadata>
<g transform="translate(0.000000,71.000000) scale(0.100000,-0.100000)"
fill="#000000" stroke="none">
<path d="M678 705 c-3 -3 -14 -8 -24 -10 -11 -2 -39 -9 -64 -15 -25 -6 -52
-13 -60 -17 -23 -10 -22 -9 -67 -18 -24 -4 -41 -11 -38 -15 2 -4 -6 -6 -18 -5
-12 1 -33 -2 -47 -8 -28 -11 -36 -13 -64 -15 -12 -2 -16 -7 -12 -18 5 -13 4
-14 -7 -5 -18 14 -78 4 -95 -17 -6 -9 -12 -11 -12 -5 0 14 -54 1 -78 -19 -12
-10 -14 -10 -8 -1 5 9 2 11 -8 7 -9 -3 -16 -9 -16 -14 0 -12 36 -40 43 -33 4
3 7 0 7 -9 0 -17 44 -61 53 -52 3 3 3 -3 0 -14 -2 -11 -10 -19 -16 -19 -28 3
-97 -16 -92 -24 4 -5 -1 -6 -9 -3 -8 3 -23 1 -33 -5 -14 -8 -15 -11 -3 -12 8
-1 19 -1 23 0 5 1 6 -3 2 -8 -8 -13 104 -123 118 -114 6 3 7 1 3 -6 -8 -12 18
-44 28 -34 3 4 6 -1 6 -11 0 -11 7 -16 18 -14 11 2 16 -3 14 -14 -3 -18 12
-25 21 -10 2 4 2 2 1 -5 -4 -17 115 -137 120 -121 2 7 12 43 21 81 18 70 24
77 49 52 17 -18 30 -20 20 -3 -4 7 -3 8 4 4 6 -4 9 -12 6 -19 -2 -7 11 -27 30
-45 l34 -32 13 53 c7 28 13 59 14 67 1 8 5 23 9 32 4 9 4 22 0 29 -4 7 -3 9 3
6 6 -4 13 5 16 21 10 52 18 86 23 94 3 4 0 8 -7 8 -7 0 -5 6 6 14 11 8 16 19
12 30 -4 9 -3 16 2 16 4 0 14 26 21 58 7 31 18 65 23 76 7 13 6 16 -3 11 -7
-4 -4 4 5 19 10 14 15 26 12 26 -3 0 1 20 9 45 11 40 8 56 -8 40z m-93 -55 c3
-5 1 -10 -4 -10 -6 0 -11 5 -11 10 0 6 2 10 4 10 3 0 8 -4 11 -10z m-119 -65
c-1 -8 -5 -17 -8 -21 -5 -4 -4 16 1 34 3 9 9 -1 7 -13z m44 -9 c0 -3 -4 -8
-10 -11 -5 -3 -10 -1 -10 4 0 6 5 11 10 11 6 0 10 -2 10 -4z m75 -6 c3 -5 1
-10 -4 -10 -6 0 -11 5 -11 10 0 6 2 10 4 10 3 0 8 -4 11 -10z m-278 -29 c0
-11 -5 -18 -9 -15 -4 3 -5 11 -1 19 7 21 12 19 10 -4z m-157 -11 c0 -5 -2 -10
-4 -10 -3 0 -8 5 -11 10 -3 6 -1 10 4 10 6 0 11 -4 11 -10z m196 -16 c1 -9 0
-13 -4 -10 -3 4 -7 14 -8 22 -1 9 0 13 4 10 3 -4 7 -14 8 -22z m200 -9 c-1 -8
-5 -17 -8 -21 -5 -4 -4 16 1 34 3 9 9 -1 7 -13z m-400 -31 c1 -9 0 -13 -4 -10
-3 4 -7 14 -8 22 -1 9 0 13 4 10 3 -4 7 -14 8 -22z m44 16 c0 -5 -5 -10 -11
-10 -5 0 -7 5 -4 10 3 6 8 10 11 10 2 0 4 -4 4 -10z m395 0 c3 -5 1 -10 -4
-10 -6 0 -11 5 -11 10 0 6 2 10 4 10 3 0 8 -4 11 -10z m-65 -56 c0 -8 -19 -13
-24 -6 -3 5 1 9 9 9 8 0 15 -2 15 -3z m67 -29 c0 -8 -4 -12 -9 -9 -5 3 -6 10
-3 15 9 13 12 11 12 -6z m-62 -14 c3 -5 2 -12 -3 -15 -5 -3 -9 1 -9 9 0 17 3
19 12 6z m-22 -46 c4 -8 3 -16 -1 -19 -4 -3 -9 4 -9 15 -2 23 3 25 10 4z
m-399 -13 c3 -5 -1 -9 -9 -9 -8 0 -12 4 -9 9 3 4 7 8 9 8 2 0 6 -4 9 -8z m42
-38 c1 -9 0 -13 -4 -10 -3 4 -7 14 -8 22 -1 9 0 13 4 10 3 -4 7 -14 8 -22z
m78 -6 c-3 -4 -11 -5 -19 -1 -21 7 -19 12 4 10 11 0 18 -5 15 -9z m50 4 c3 -5
-1 -9 -9 -9 -8 0 -12 4 -9 9 3 4 7 8 9 8 2 0 6 -4 9 -8z m211 -10 c-3 -3 -11
0 -18 7 -9 10 -8 11 6 5 10 -3 15 -9 12 -12z m25 -26 c0 -3 -4 -8 -10 -11 -5
-3 -10 -1 -10 4 0 6 5 11 10 11 6 0 10 -2 10 -4z m-283 -41 c0 -8 -4 -12 -9
-9 -5 3 -6 10 -3 15 9 13 12 11 12 -6z m93 -1 c0 -8 -19 -13 -24 -6 -3 5 1 9
9 9 8 0 15 -2 15 -3z m50 -84 c0 -5 -2 -10 -4 -10 -3 0 -8 5 -11 10 -3 6 -1
10 4 10 6 0 11 -4 11 -10z"/>
</g>
</svg>
